<mxfile host="app.diagrams.net" agent="Mozilla/5.0 (Windows NT 10.0; Win64; x64) AppleWebKit/537.36 (KHTML, like Gecko) Chrome/103.0.0.0 Safari/537.36" version="27.0.9">
  <diagram name="第 1 页" id="b-wFFnTidDRVDTVF9fiY">
    <mxGraphModel dx="983" dy="530" grid="1" gridSize="10" guides="1" tooltips="1" connect="1" arrows="1" fold="1" page="1" pageScale="1" pageWidth="827" pageHeight="1169" math="0" shadow="0">
      <root>
        <mxCell id="0" />
        <mxCell id="1" parent="0" />
        <mxCell id="ZLMe1sIbapqyTCxvVwkS-2" value="client" style="ellipse;whiteSpace=wrap;html=1;" vertex="1" parent="1">
          <mxGeometry x="60" y="180" width="60" height="40" as="geometry" />
        </mxCell>
        <mxCell id="ZLMe1sIbapqyTCxvVwkS-3" value="YARN-RM" style="whiteSpace=wrap;html=1;aspect=fixed;" vertex="1" parent="1">
          <mxGeometry x="220" y="190" width="100" height="100" as="geometry" />
        </mxCell>
        <mxCell id="ZLMe1sIbapqyTCxvVwkS-4" value="" style="rounded=1;whiteSpace=wrap;html=1;fillColor=#d5e8d4;strokeColor=#82b366;" vertex="1" parent="1">
          <mxGeometry x="470" y="120" width="183" height="110" as="geometry" />
        </mxCell>
        <mxCell id="ZLMe1sIbapqyTCxvVwkS-1" value="&lt;blockquote style=&quot;margin: 0 0 0 40px; border: none; padding: 0px;&quot;&gt;Node 125G&lt;/blockquote&gt;" style="rounded=1;whiteSpace=wrap;html=1;align=right;fillColor=#f8cecc;strokeColor=#b85450;" vertex="1" parent="1">
          <mxGeometry x="488" y="130" width="165" height="100" as="geometry" />
        </mxCell>
        <mxCell id="ZLMe1sIbapqyTCxvVwkS-5" value="cleint" style="ellipse;whiteSpace=wrap;html=1;" vertex="1" parent="1">
          <mxGeometry x="60" y="280" width="60" height="40" as="geometry" />
        </mxCell>
        <mxCell id="ZLMe1sIbapqyTCxvVwkS-8" value="NM 8G" style="ellipse;whiteSpace=wrap;html=1;fillColor=#d5e8d4;strokeColor=#82b366;" vertex="1" parent="1">
          <mxGeometry x="549" y="145" width="45" height="30" as="geometry" />
        </mxCell>
        <mxCell id="ZLMe1sIbapqyTCxvVwkS-9" value="DN 4G" style="ellipse;whiteSpace=wrap;html=1;fillColor=#d5e8d4;strokeColor=#82b366;" vertex="1" parent="1">
          <mxGeometry x="549" y="185" width="45" height="30" as="geometry" />
        </mxCell>
        <mxCell id="ZLMe1sIbapqyTCxvVwkS-10" value="&lt;font style=&quot;font-size: 11px;&quot;&gt;yarn可分配 120G&lt;/font&gt;" style="ellipse;whiteSpace=wrap;html=1;fillColor=#d5e8d4;strokeColor=#82b366;" vertex="1" parent="1">
          <mxGeometry x="470" y="150" width="75" height="50" as="geometry" />
        </mxCell>
        <mxCell id="ZLMe1sIbapqyTCxvVwkS-11" value="服务级别超卖10G" style="text;html=1;align=center;verticalAlign=middle;whiteSpace=wrap;rounded=0;" vertex="1" parent="1">
          <mxGeometry x="480" y="90" width="130" height="30" as="geometry" />
        </mxCell>
        <mxCell id="ZLMe1sIbapqyTCxvVwkS-18" value="&lt;blockquote style=&quot;margin: 0 0 0 40px; border: none; padding: 0px;&quot;&gt;Node 125G&lt;/blockquote&gt;" style="rounded=1;whiteSpace=wrap;html=1;align=right;fillColor=#f8cecc;strokeColor=#b85450;" vertex="1" parent="1">
          <mxGeometry x="489" y="250" width="165" height="100" as="geometry" />
        </mxCell>
        <mxCell id="ZLMe1sIbapqyTCxvVwkS-19" value="NM 8G" style="ellipse;whiteSpace=wrap;html=1;fillColor=#d5e8d4;strokeColor=#82b366;" vertex="1" parent="1">
          <mxGeometry x="550" y="265" width="45" height="30" as="geometry" />
        </mxCell>
        <mxCell id="ZLMe1sIbapqyTCxvVwkS-20" value="DN 4G" style="ellipse;whiteSpace=wrap;html=1;fillColor=#d5e8d4;strokeColor=#82b366;" vertex="1" parent="1">
          <mxGeometry x="550" y="305" width="45" height="30" as="geometry" />
        </mxCell>
        <mxCell id="ZLMe1sIbapqyTCxvVwkS-21" value="&lt;font style=&quot;font-size: 11px;&quot;&gt;yarn可分配 110G&lt;/font&gt;" style="ellipse;whiteSpace=wrap;html=1;fillColor=#d5e8d4;strokeColor=#82b366;" vertex="1" parent="1">
          <mxGeometry x="489" y="275" width="75" height="50" as="geometry" />
        </mxCell>
        <mxCell id="ZLMe1sIbapqyTCxvVwkS-22" value="&lt;blockquote style=&quot;margin: 0 0 0 40px; border: none; padding: 0px;&quot;&gt;Node 125G&lt;/blockquote&gt;" style="rounded=1;whiteSpace=wrap;html=1;align=right;fillColor=#f8cecc;strokeColor=#b85450;" vertex="1" parent="1">
          <mxGeometry x="490" y="380" width="165" height="100" as="geometry" />
        </mxCell>
        <mxCell id="ZLMe1sIbapqyTCxvVwkS-23" value="NM 8G" style="ellipse;whiteSpace=wrap;html=1;fillColor=#d5e8d4;strokeColor=#82b366;" vertex="1" parent="1">
          <mxGeometry x="551" y="395" width="45" height="30" as="geometry" />
        </mxCell>
        <mxCell id="ZLMe1sIbapqyTCxvVwkS-24" value="DN 4G" style="ellipse;whiteSpace=wrap;html=1;fillColor=#d5e8d4;strokeColor=#82b366;" vertex="1" parent="1">
          <mxGeometry x="551" y="435" width="45" height="30" as="geometry" />
        </mxCell>
        <mxCell id="ZLMe1sIbapqyTCxvVwkS-25" value="&lt;font style=&quot;font-size: 11px;&quot;&gt;yarn可分配 110G&lt;/font&gt;" style="ellipse;whiteSpace=wrap;html=1;fillColor=#d5e8d4;strokeColor=#82b366;" vertex="1" parent="1">
          <mxGeometry x="490" y="405" width="75" height="50" as="geometry" />
        </mxCell>
      </root>
    </mxGraphModel>
  </diagram>
</mxfile>
